PathFileType	4	(X/Y/Z)	S1_rest_fast_left.trc
DataRate	CameraRate	NumFrames	NumMarkers	Units	OrigDataRate	OrigDataStartFrame	OrigNumFrames
250.00	250.00	9	18	mm	250.00	2976	23803
Frame#	Time	c7	r_should	l_should	clavicle	r_upa	r_elb_l	r_elb_m	r_low	r_wri_l	r_wri_m	r_met	l_upa	l_elb_l	l_elb_m	l_low	l_wri_l	l_wri_m	l_met
	X1	Y1	Z1	X2	Y2	Z2	X3	Y3	Z3	X4	Y4	Z4	X5	Y5	Z5	X6	Y6	Z6	X7	Y7	Z7	X8	Y8	Z8	X9	Y9	Z9	X10	Y10	Z10	X11	Y11	Z11	X12	Y12	Z12	X13	Y13	Z13	X14	Y14	Z14	X15	Y15	Z15	X16	Y16	Z16	X17	Y17	Z17	X18	Y18	Z18
2976	11.90000	392.25659	1418.89709	79.43850	467.40909	1353.95728	260.27979	441.08218	1357.12610	-113.95962	530.12933	1299.53418	61.92900	448.06046	1158.17358	332.14847	464.09195	1059.37512	345.68170	388.85370	1034.13000	283.50497	448.32153	927.46899	361.02332	542.77667	861.62134	317.58960	479.99051	831.56543	339.63132	593.42914	783.37939	328.20398	457.40228	1130.19202	-137.66010	467.73865	1047.30518	-152.65005	nan	nan	nan	447.13629	897.80353	-126.48085	511.93494	816.98029	-162.71498	480.13757	801.41675	-99.75287	497.98734	743.32336	-183.32417
2977	11.90400	392.24307	1418.89978	79.48131	467.38211	1353.94617	260.32352	441.06567	1357.12634	-113.91036	530.10413	1299.53528	61.96492	448.02618	1158.16296	332.19012	464.06693	1059.35620	345.71661	388.83826	1034.11169	283.52106	448.29950	927.45197	361.04266	542.75696	861.61420	317.60233	479.97327	831.55475	339.64304	593.41351	783.37970	328.22351	457.39841	1130.19934	-137.62267	467.73355	1047.30750	-152.60085	nan	nan	nan	447.12650	897.80676	-126.44807	511.92493	816.98602	-162.68137	480.11929	801.42084	-99.73915	497.97641	743.31677	-183.29039
2978	11.90800	392.22842	1418.89978	79.52485	467.35126	1353.93689	260.36536	441.04398	1357.13293	-113.86518	530.15234	1299.36926	62.22347	447.99640	1158.16272	332.23102	464.03348	1059.34167	345.73947	388.81958	1034.09412	283.54395	448.27896	927.43311	361.05829	542.73932	861.60840	317.62125	479.95853	831.54468	339.65604	593.40106	783.37366	328.23938	457.39566	1130.20264	-137.58211	467.73578	1047.31458	-152.55226	nan	nan	nan	447.11957	897.80865	-126.41352	511.91782	816.98706	-162.65092	480.09647	801.42792	-99.72124	497.96451	743.30847	-183.25833
2979	11.91200	392.21268	1418.89331	79.57439	467.32922	1353.92542	260.40930	441.02441	1357.13843	-113.82650	530.29340	1299.07837	62.73945	447.96613	1158.15613	332.26950	464.00726	1059.33521	345.76730	388.79706	1034.08752	283.57501	448.25757	927.42145	361.07779	542.72272	861.60406	317.63632	479.94476	831.53357	339.66541	593.38831	783.37567	328.24939	457.39014	1130.20447	-137.54350	467.73697	1047.32227	-152.50491	nan	nan	nan	447.11523	897.81085	-126.38241	511.91498	816.99152	-162.62256	480.07391	801.43408	-99.69919	497.96112	743.30261	-183.23061
2980	11.91600	392.19815	1418.89233	79.62032	467.30585	1353.91956	260.45242	441.00143	1357.14270	-113.78077	530.28955	1299.14734	62.75368	447.93872	1158.14490	332.30154	463.98770	1059.32935	345.79437	388.77957	1034.07361	283.59991	448.23956	927.40796	361.09579	542.70758	861.60138	317.64832	479.93170	831.52490	339.67422	593.37360	783.37476	328.26477	457.38937	1130.20752	-137.49377	467.73746	1047.33484	-152.46881	nan	nan	nan	447.10828	897.81378	-126.35835	511.91367	816.99524	-162.59026	480.05325	801.45020	-99.69022	497.95578	743.29639	-183.19493
2981	11.92000	392.18256	1418.89929	79.66179	467.27972	1353.91541	260.49939	440.97653	1357.14648	-113.73074	530.07275	1299.47852	62.26987	447.90649	1158.13452	332.32306	463.96887	1059.32104	345.82074	388.76801	1034.05164	283.61887	448.21924	927.39166	361.10583	542.69342	861.59900	317.65616	479.91681	831.51544	339.67737	593.36267	783.37372	328.27930	457.39471	1130.21143	-137.44733	467.73859	1047.34253	-152.43123	nan	nan	nan	447.10446	897.81726	-126.32833	511.90955	816.99823	-162.56107	480.02887	801.45831	-99.67722	497.94476	743.29504	-183.17313
2982	11.92400	392.16357	1418.89832	79.70702	467.25113	1353.91162	260.54242	440.95615	1357.14575	-113.67944	530.06030	1299.42053	62.38202	447.88321	1158.12585	332.35883	463.94009	1059.31567	345.84943	388.74490	1034.04309	283.64380	448.19757	927.37457	361.11700	542.67804	861.59906	317.66879	479.89871	831.50549	339.68536	593.34650	783.37842	328.28647	457.38864	1130.21704	-137.40079	467.73795	1047.34656	-152.38704	nan	nan	nan	447.10168	897.82007	-126.29448	511.90247	817.00372	-162.52998	480.00101	801.45654	-99.66451	497.92725	743.29156	-183.15102
2983	11.92800	392.14429	1418.89868	79.75244	467.21771	1353.90784	260.58246	440.92355	1357.15027	-113.63512	530.11450	1299.24084	62.66668	447.85770	1158.11121	332.39825	463.90845	1059.30798	345.86838	388.71579	1034.03394	283.66507	448.17557	927.36212	361.13272	542.65784	861.59613	317.68347	479.87909	831.49243	339.69574	593.32654	783.38055	328.29263	457.37991	1130.22278	-137.35367	467.74023	1047.34937	-152.33788	nan	nan	nan	447.09277	897.81677	-126.26691	511.89697	817.00568	-162.49750	479.97977	801.44690	-99.64487	497.91745	743.28369	-183.12259
2984	11.93200	392.12939	1418.89392	79.80314	467.18982	1353.90295	260.63351	440.89551	1357.15369	-113.59180	530.00629	1299.47046	62.39470	447.83582	1158.09814	332.42691	463.89246	1059.29248	345.89987	388.69217	1034.02686	283.68491	448.15317	927.34686	361.14981	542.63910	861.59589	317.69287	479.86044	831.48236	339.70602	593.30823	783.38385	328.29956	457.37027	1130.23120	-137.30678	467.74051	1047.35107	-152.28510	nan	nan	nan	447.08286	897.81378	-126.23641	511.88647	817.00757	-162.47025	479.95569	801.44647	-99.62270	497.90591	743.27429	-183.10071
